# Blender 4.2.0
# www.blender.org
mtllib atk-ytp.mtl
o Text
v 1.466028 -0.250000 0.450000
v 1.466028 0.373803 0.450000
v 1.733014 0.373803 0.450000
v 1.806248 0.367931 0.450000
v 1.867180 0.350313 0.450000
v 1.915809 0.320949 0.450000
v 1.951208 0.280723 0.450000
v 1.972447 0.230515 0.450000
v 1.979527 0.170326 0.450000
v 1.972447 0.109904 0.450000
v 1.951208 0.059557 0.450000
v 1.915809 0.019284 0.450000
v 1.867180 -0.010079 0.450000
v 1.806248 -0.027697 0.450000
v 1.733014 -0.033570 0.450000
v 1.626888 -0.033570 0.450000
v 1.626888 -0.250000 0.450000
v 1.715883 0.257232 0.450000
v 1.626888 0.257232 0.450000
v 1.626888 0.083001 0.450000
v 1.715883 0.083001 0.450000
v 1.744713 0.085532 0.450000
v 1.768807 0.093122 0.450000
v 1.788166 0.105773 0.450000
v 1.802325 0.123066 0.450000
v 1.810821 0.144583 0.450000
v 1.813653 0.170326 0.450000
v 1.810821 0.196045 0.450000
v 1.802325 0.217493 0.450000
v 1.788166 0.234670 0.450000
v 1.768807 0.247204 0.450000
v 1.744713 0.254725 0.450000
v 0.807963 0.252218 0.450000
v 0.807963 0.373803 0.450000
v 1.382882 0.373803 0.450000
v 1.382882 0.252218 0.450000
v 1.176061 0.252218 0.450000
v 1.176061 -0.250000 0.450000
v 1.015201 -0.250000 0.450000
v 1.015201 0.252218 0.450000
v 0.413542 0.012808 0.450000
v 0.175803 0.373803 0.450000
v 0.351705 0.373803 0.450000
v 0.493763 0.151524 0.450000
v 0.635822 0.373803 0.450000
v 0.812141 0.373803 0.450000
v 0.574403 0.012808 0.450000
v 0.574403 -0.250000 0.450000
v 0.413542 -0.250000 0.450000
v -0.124608 -0.064489 0.450000
v -0.124608 0.057097 0.450000
v 0.137782 0.057097 0.450000
v 0.137782 -0.064489 0.450000
v -0.755515 -0.250000 0.450000
v -0.755515 0.373803 0.450000
v -0.594654 0.373803 0.450000
v -0.594654 0.146092 0.450000
v -0.362765 0.373803 0.450000
v -0.176000 0.373803 0.450000
v -0.476412 0.078405 0.450000
v -0.145081 -0.250000 0.450000
v -0.346470 -0.250000 0.450000
v -0.594654 -0.004323 0.450000
v -0.594654 -0.250000 0.450000
v -1.413579 0.252218 0.450000
v -1.413579 0.373803 0.450000
v -0.838660 0.373803 0.450000
v -0.838660 0.252218 0.450000
v -1.045481 0.252218 0.450000
v -1.045481 -0.250000 0.450000
v -1.206341 -0.250000 0.450000
v -1.206341 0.252218 0.450000
v -1.583631 -0.250000 0.450000
v -1.622906 -0.136353 0.450000
v -1.874433 -0.136353 0.450000
v -1.914126 -0.250000 0.450000
v -2.075822 -0.250000 0.450000
v -1.844768 0.373803 0.450000
v -1.652989 0.373803 0.450000
v -1.421935 -0.250000 0.450000
v -1.748670 0.227567 0.450000
v -1.834322 -0.020618 0.450000
v -1.663435 -0.020618 0.450000
v 1.466028 -0.250000 -0.450000
v 1.466028 0.373803 -0.450000
v 1.733014 0.373803 -0.450000
v 1.806248 0.367931 -0.450000
v 1.867180 0.350313 -0.450000
v 1.915809 0.320949 -0.450000
v 1.951208 0.280723 -0.450000
v 1.972447 0.230515 -0.450000
v 1.979527 0.170326 -0.450000
v 1.972447 0.109904 -0.450000
v 1.951208 0.059557 -0.450000
v 1.915809 0.019284 -0.450000
v 1.867180 -0.010079 -0.450000
v 1.806248 -0.027697 -0.450000
v 1.733014 -0.033570 -0.450000
v 1.626888 -0.033570 -0.450000
v 1.626888 -0.250000 -0.450000
v 1.715883 0.257232 -0.450000
v 1.626888 0.257232 -0.450000
v 1.626888 0.083002 -0.450000
v 1.715883 0.083002 -0.450000
v 1.744713 0.085532 -0.450000
v 1.768807 0.093122 -0.450000
v 1.788166 0.105773 -0.450000
v 1.802325 0.123066 -0.450000
v 1.810821 0.144583 -0.450000
v 1.813653 0.170326 -0.450000
v 1.810821 0.196045 -0.450000
v 1.802325 0.217493 -0.450000
v 1.788166 0.234670 -0.450000
v 1.768807 0.247204 -0.450000
v 1.744713 0.254725 -0.450000
v 0.807963 0.252218 -0.450000
v 0.807963 0.373803 -0.450000
v 1.382882 0.373803 -0.450000
v 1.382882 0.252218 -0.450000
v 1.176061 0.252218 -0.450000
v 1.176061 -0.250000 -0.450000
v 1.015201 -0.250000 -0.450000
v 1.015201 0.252218 -0.450000
v 0.413542 0.012808 -0.450000
v 0.175803 0.373803 -0.450000
v 0.351705 0.373803 -0.450000
v 0.493763 0.151524 -0.450000
v 0.635822 0.373803 -0.450000
v 0.812141 0.373803 -0.450000
v 0.574403 0.012808 -0.450000
v 0.574403 -0.250000 -0.450000
v 0.413542 -0.250000 -0.450000
v -0.124608 -0.064488 -0.450000
v -0.124608 0.057097 -0.450000
v 0.137782 0.057097 -0.450000
v 0.137782 -0.064488 -0.450000
v -0.755515 -0.250000 -0.450000
v -0.755515 0.373803 -0.450000
v -0.594654 0.373803 -0.450000
v -0.594654 0.146092 -0.450000
v -0.362765 0.373803 -0.450000
v -0.176000 0.373803 -0.450000
v -0.476412 0.078406 -0.450000
v -0.145081 -0.250000 -0.450000
v -0.346470 -0.250000 -0.450000
v -0.594654 -0.004323 -0.450000
v -0.594654 -0.250000 -0.450000
v -1.413579 0.252218 -0.450000
v -1.413579 0.373803 -0.450000
v -0.838660 0.373803 -0.450000
v -0.838660 0.252218 -0.450000
v -1.045481 0.252218 -0.450000
v -1.045481 -0.250000 -0.450000
v -1.206341 -0.250000 -0.450000
v -1.206341 0.252218 -0.450000
v -1.583631 -0.250000 -0.450000
v -1.622906 -0.136353 -0.450000
v -1.874433 -0.136353 -0.450000
v -1.914126 -0.250000 -0.450000
v -2.075822 -0.250000 -0.450000
v -1.844768 0.373803 -0.450000
v -1.652989 0.373803 -0.450000
v -1.421935 -0.250000 -0.450000
v -1.748670 0.227567 -0.450000
v -1.834322 -0.020617 -0.450000
v -1.663435 -0.020617 -0.450000
v -1.583631 -0.250000 -0.450000
v -1.583631 -0.250000 0.450000
v -1.622906 -0.136353 -0.450000
v -1.622906 -0.136353 0.450000
v -1.874433 -0.136353 -0.450000
v -1.874433 -0.136353 0.450000
v -1.914126 -0.250000 -0.450000
v -1.914126 -0.250000 0.450000
v -2.075822 -0.250000 -0.450000
v -2.075822 -0.250000 0.450000
v -1.844768 0.373803 -0.450000
v -1.844768 0.373803 0.450000
v -1.652989 0.373803 -0.450000
v -1.652989 0.373803 0.450000
v -1.421935 -0.250000 -0.450000
v -1.421935 -0.250000 0.450000
v -1.748670 0.227567 -0.450000
v -1.748670 0.227567 0.450000
v -1.834322 -0.020617 -0.450000
v -1.834322 -0.020618 0.450000
v -1.663435 -0.020617 -0.450000
v -1.663435 -0.020618 0.450000
v -1.413579 0.252218 -0.450000
v -1.413579 0.252218 0.450000
v -1.413579 0.373803 -0.450000
v -1.413579 0.373803 0.450000
v -0.838660 0.373803 -0.450000
v -0.838660 0.373803 0.450000
v -0.838660 0.252218 -0.450000
v -0.838660 0.252218 0.450000
v -1.045481 0.252218 -0.450000
v -1.045481 0.252218 0.450000
v -1.045481 -0.250000 -0.450000
v -1.045481 -0.250000 0.450000
v -1.206341 -0.250000 -0.450000
v -1.206341 -0.250000 0.450000
v -1.206341 0.252218 -0.450000
v -1.206341 0.252218 0.450000
v -0.755515 -0.250000 -0.450000
v -0.755515 -0.250000 0.450000
v -0.755515 0.373803 -0.450000
v -0.755515 0.373803 0.450000
v -0.594654 0.373803 -0.450000
v -0.594654 0.373803 0.450000
v -0.594654 0.146092 -0.450000
v -0.594654 0.146092 0.450000
v -0.362765 0.373803 -0.450000
v -0.362765 0.373803 0.450000
v -0.176000 0.373803 -0.450000
v -0.176000 0.373803 0.450000
v -0.476412 0.078406 -0.450000
v -0.476412 0.078405 0.450000
v -0.145081 -0.250000 -0.450000
v -0.145081 -0.250000 0.450000
v -0.346470 -0.250000 -0.450000
v -0.346470 -0.250000 0.450000
v -0.594654 -0.004323 -0.450000
v -0.594654 -0.004323 0.450000
v -0.594654 -0.250000 -0.450000
v -0.594654 -0.250000 0.450000
v -0.124608 -0.064488 -0.450000
v -0.124608 -0.064489 0.450000
v -0.124608 0.057097 -0.450000
v -0.124608 0.057097 0.450000
v 0.137782 0.057097 -0.450000
v 0.137782 0.057097 0.450000
v 0.137782 -0.064488 -0.450000
v 0.137782 -0.064489 0.450000
v 0.413542 0.012808 -0.450000
v 0.413542 0.012808 0.450000
v 0.175803 0.373803 -0.450000
v 0.175803 0.373803 0.450000
v 0.351705 0.373803 -0.450000
v 0.351705 0.373803 0.450000
v 0.493763 0.151524 -0.450000
v 0.493763 0.151524 0.450000
v 0.635822 0.373803 -0.450000
v 0.635822 0.373803 0.450000
v 0.812141 0.373803 -0.450000
v 0.812141 0.373803 0.450000
v 0.574403 0.012808 -0.450000
v 0.574403 0.012808 0.450000
v 0.574403 -0.250000 -0.450000
v 0.574403 -0.250000 0.450000
v 0.413542 -0.250000 -0.450000
v 0.413542 -0.250000 0.450000
v 0.807963 0.252218 -0.450000
v 0.807963 0.252218 0.450000
v 0.807963 0.373803 -0.450000
v 0.807963 0.373803 0.450000
v 1.382882 0.373803 -0.450000
v 1.382882 0.373803 0.450000
v 1.382882 0.252218 -0.450000
v 1.382882 0.252218 0.450000
v 1.176061 0.252218 -0.450000
v 1.176061 0.252218 0.450000
v 1.176061 -0.250000 -0.450000
v 1.176061 -0.250000 0.450000
v 1.015201 -0.250000 -0.450000
v 1.015201 -0.250000 0.450000
v 1.015201 0.252218 -0.450000
v 1.015201 0.252218 0.450000
v 1.466028 -0.250000 -0.450000
v 1.466028 -0.250000 0.450000
v 1.466028 0.373803 -0.450000
v 1.466028 0.373803 0.450000
v 1.733014 0.373803 -0.450000
v 1.733014 0.373803 0.450000
v 1.806248 0.367931 -0.450000
v 1.806248 0.367931 0.450000
v 1.867180 0.350313 -0.450000
v 1.867180 0.350313 0.450000
v 1.915809 0.320949 -0.450000
v 1.915809 0.320949 0.450000
v 1.951208 0.280723 -0.450000
v 1.951208 0.280723 0.450000
v 1.972447 0.230515 -0.450000
v 1.972447 0.230515 0.450000
v 1.979527 0.170326 -0.450000
v 1.979527 0.170326 0.450000
v 1.972447 0.109904 -0.450000
v 1.972447 0.109904 0.450000
v 1.951208 0.059557 -0.450000
v 1.951208 0.059557 0.450000
v 1.915809 0.019284 -0.450000
v 1.915809 0.019284 0.450000
v 1.867180 -0.010079 -0.450000
v 1.867180 -0.010079 0.450000
v 1.806248 -0.027697 -0.450000
v 1.806248 -0.027697 0.450000
v 1.733014 -0.033570 -0.450000
v 1.733014 -0.033570 0.450000
v 1.626888 -0.033570 -0.450000
v 1.626888 -0.033570 0.450000
v 1.626888 -0.250000 -0.450000
v 1.626888 -0.250000 0.450000
v 1.715883 0.257232 -0.450000
v 1.715883 0.257232 0.450000
v 1.626888 0.257232 -0.450000
v 1.626888 0.257232 0.450000
v 1.626888 0.083002 -0.450000
v 1.626888 0.083001 0.450000
v 1.715883 0.083002 -0.450000
v 1.715883 0.083001 0.450000
v 1.744713 0.085532 -0.450000
v 1.744713 0.085532 0.450000
v 1.768807 0.093122 -0.450000
v 1.768807 0.093122 0.450000
v 1.788166 0.105773 -0.450000
v 1.788166 0.105773 0.450000
v 1.802325 0.123066 -0.450000
v 1.802325 0.123066 0.450000
v 1.810821 0.144583 -0.450000
v 1.810821 0.144583 0.450000
v 1.813653 0.170326 -0.450000
v 1.813653 0.170326 0.450000
v 1.810821 0.196045 -0.450000
v 1.810821 0.196045 0.450000
v 1.802325 0.217493 -0.450000
v 1.802325 0.217493 0.450000
v 1.788166 0.234670 -0.450000
v 1.788166 0.234670 0.450000
v 1.768807 0.247204 -0.450000
v 1.768807 0.247204 0.450000
v 1.744713 0.254725 -0.450000
v 1.744713 0.254725 0.450000
vn -0.0000 -0.0000 1.0000
vn -0.0000 -0.0000 -1.0000
vn -0.5802 -0.8144 -0.0000
vn 0.5789 -0.8154 -0.0000
vn -0.8208 -0.5713 -0.0000
vn -0.5713 0.8208 -0.0000
vn 0.5713 0.8208 -0.0000
vn 0.8208 -0.5713 -0.0000
vn -0.0008 -1.0000 -0.0000
vn 0.8143 0.5804 -0.0000
vn -0.8139 0.5810 -0.0000
vn -0.7071 -0.7071 -0.0000
vn -0.7071 0.7071 -0.0000
vn 0.7071 0.7071 -0.0000
vn 0.7071 -0.7071 -0.0000
vn 0.3869 0.9221 -0.0000
vn -0.3785 0.9256 -0.0000
vn 0.9255 0.3788 -0.0000
vn 1.0000 -0.0020 -0.0000
vn 0.9247 -0.3806 -0.0000
vn -0.3803 -0.9248 -0.0000
vn 0.3850 -0.9229 -0.0000
vn -0.9579 -0.2871 -0.0000
vn -0.8803 0.4743 -0.0000
vn 0.4804 0.8771 -0.0000
vn -0.0000 1.0000 -0.0000
vn -0.4804 0.8771 -0.0000
vn 0.8803 0.4743 -0.0000
vn 0.9579 -0.2871 -0.0000
vn 0.0400 0.9992 -0.0000
vn 0.1798 0.9837 -0.0000
vn 0.4008 0.9162 -0.0000
vn 0.6413 0.7673 -0.0000
vn 0.8468 0.5320 -0.0000
vn 0.9667 0.2558 -0.0000
vn 1.0000 0.0002 -0.0000
vn 0.9669 -0.2551 -0.0000
vn 0.8472 -0.5313 -0.0000
vn 0.6415 -0.7671 -0.0000
vn 0.4008 -0.9162 -0.0000
vn 0.1798 -0.9837 -0.0000
vn 0.0400 -0.9992 -0.0000
vn -0.0434 -0.9991 -0.0000
vn -0.0438 0.9990 -0.0000
vn -0.1951 0.9808 -0.0000
vn -0.4278 0.9039 -0.0000
vn -0.6682 0.7440 -0.0000
vn -0.8623 0.5065 -0.0000
vn -0.9707 0.2404 -0.0000
vn -1.0000 -0.0000 -0.0000
vn -0.9705 -0.2410 -0.0000
vn -0.8611 -0.5084 -0.0000
vn -0.6654 -0.7465 -0.0000
vn -0.4247 -0.9054 -0.0000
vn -0.1934 -0.9811 -0.0000
vt 0.000000 0.000000
vt 0.580645 0.000000
vt 0.032258 0.000000
vt 0.064516 0.000000
vt 0.096774 0.000000
vt 0.129032 0.000000
vt 0.161290 0.000000
vt 0.193548 0.000000
vt 0.548387 0.000000
vt 1.000000 0.000000
vt 0.225806 0.000000
vt 0.612903 0.000000
vt 0.967742 0.000000
vt 0.935484 0.000000
vt 0.903226 0.000000
vt 0.258065 0.000000
vt 0.870968 0.000000
vt 0.838710 0.000000
vt 0.806452 0.000000
vt 0.290323 0.000000
vt 0.774194 0.000000
vt 0.741935 0.000000
vt 0.322581 0.000000
vt 0.709677 0.000000
vt 0.677419 0.000000
vt 0.645161 0.000000
vt 0.483871 0.000000
vt 0.354839 0.000000
vt 0.387097 0.000000
vt 0.419355 0.000000
vt 0.451613 0.000000
vt 0.516129 0.000000
vt 0.285714 0.000000
vt 0.142857 0.000000
vt 0.428571 0.000000
vt 0.857143 0.000000
vt 0.571429 0.000000
vt 0.714286 0.000000
vt 0.250000 0.000000
vt 0.125000 0.000000
vt 0.375000 0.000000
vt 0.625000 0.000000
vt 0.500000 0.000000
vt 0.750000 0.000000
vt 0.875000 0.000000
vt 0.666667 0.000000
vt 0.333333 0.000000
vt 0.200000 0.000000
vt 0.100000 0.000000
vt 0.300000 0.000000
vt 0.400000 0.000000
vt 0.600000 0.000000
vt 0.900000 0.000000
vt 0.700000 0.000000
vt 0.800000 0.000000
vt 0.000000 1.000000
vt 0.125000 1.000000
vt 0.250000 1.000000
vt 0.375000 1.000000
vt 0.500000 1.000000
vt 0.625000 1.000000
vt 0.750000 1.000000
vt 0.875000 1.000000
vt 1.000000 1.000000
vt 0.333333 1.000000
vt 0.666667 1.000000
vt 0.090909 1.000000
vt 0.090909 0.000000
vt 0.181818 1.000000
vt 0.181818 0.000000
vt 0.272727 1.000000
vt 0.272727 0.000000
vt 0.363636 1.000000
vt 0.363636 0.000000
vt 0.454545 1.000000
vt 0.454545 0.000000
vt 0.545455 1.000000
vt 0.545455 0.000000
vt 0.636364 1.000000
vt 0.636364 0.000000
vt 0.727273 1.000000
vt 0.727273 0.000000
vt 0.818182 1.000000
vt 0.818182 0.000000
vt 0.909091 1.000000
vt 0.909091 0.000000
vt 0.111111 1.000000
vt 0.111111 0.000000
vt 0.222222 1.000000
vt 0.222222 0.000000
vt 0.444444 1.000000
vt 0.444444 0.000000
vt 0.555556 1.000000
vt 0.555556 0.000000
vt 0.777778 1.000000
vt 0.777778 0.000000
vt 0.888889 1.000000
vt 0.888889 0.000000
vt 0.058824 1.000000
vt 0.058824 0.000000
vt 0.117647 1.000000
vt 0.117647 0.000000
vt 0.176471 1.000000
vt 0.176471 0.000000
vt 0.235294 1.000000
vt 0.235294 0.000000
vt 0.294118 1.000000
vt 0.294118 0.000000
vt 0.352941 1.000000
vt 0.352941 0.000000
vt 0.411765 1.000000
vt 0.411765 0.000000
vt 0.470588 1.000000
vt 0.470588 0.000000
vt 0.529412 1.000000
vt 0.529412 0.000000
vt 0.588235 1.000000
vt 0.588235 0.000000
vt 0.647059 1.000000
vt 0.647059 0.000000
vt 0.705882 1.000000
vt 0.705882 0.000000
vt 0.764706 1.000000
vt 0.764706 0.000000
vt 0.823529 1.000000
vt 0.823529 0.000000
vt 0.882353 1.000000
vt 0.882353 0.000000
vt 0.941176 1.000000
vt 0.941176 0.000000
vt 0.066667 1.000000
vt 0.066667 0.000000
vt 0.133333 1.000000
vt 0.133333 0.000000
vt 0.200000 1.000000
vt 0.266667 1.000000
vt 0.266667 0.000000
vt 0.400000 1.000000
vt 0.466667 1.000000
vt 0.466667 0.000000
vt 0.533333 1.000000
vt 0.533333 0.000000
vt 0.600000 1.000000
vt 0.733333 1.000000
vt 0.733333 0.000000
vt 0.800000 1.000000
vt 0.866667 1.000000
vt 0.866667 0.000000
vt 0.933333 1.000000
vt 0.933333 0.000000
s 0
f 1/1/1 19/2/1 2/3/1
f 19/2/1 3/4/1 2/3/1
f 19/2/1 4/5/1 3/4/1
f 19/2/1 5/6/1 4/5/1
f 19/2/1 6/7/1 5/6/1
f 19/2/1 7/8/1 6/7/1
f 19/2/1 18/9/1 7/8/1
f 18/9/1 32/10/1 7/8/1
f 32/10/1 8/11/1 7/8/1
f 1/1/1 20/12/1 19/2/1
f 31/13/1 8/11/1 32/10/1
f 30/14/1 8/11/1 31/13/1
f 29/15/1 8/11/1 30/14/1
f 29/15/1 9/16/1 8/11/1
f 28/17/1 9/16/1 29/15/1
f 27/18/1 9/16/1 28/17/1
f 26/19/1 9/16/1 27/18/1
f 26/19/1 10/20/1 9/16/1
f 25/21/1 10/20/1 26/19/1
f 24/22/1 10/20/1 25/21/1
f 24/22/1 11/23/1 10/20/1
f 23/24/1 11/23/1 24/22/1
f 22/25/1 11/23/1 23/24/1
f 21/26/1 11/23/1 22/25/1
f 1/1/1 16/27/1 20/12/1
f 16/27/1 21/26/1 20/12/1
f 16/27/1 11/23/1 21/26/1
f 16/27/1 12/28/1 11/23/1
f 16/27/1 13/29/1 12/28/1
f 16/27/1 14/30/1 13/29/1
f 16/27/1 15/31/1 14/30/1
f 1/1/1 17/32/1 16/27/1
f 33/1/1 35/33/1 34/34/1
f 33/1/1 36/35/1 35/33/1
f 40/10/1 36/35/1 33/1/1
f 39/36/1 37/37/1 40/10/1
f 37/37/2 36/35/2 40/10/2
f 39/36/1 38/38/1 37/37/1
f 41/1/1 43/39/1 42/40/1
f 41/1/1 44/41/1 43/39/1
f 44/41/1 46/42/1 45/43/1
f 44/41/1 47/44/1 46/42/1
f 41/1/1 47/44/1 44/41/1
f 49/10/1 47/44/1 41/1/1
f 49/10/1 48/45/1 47/44/1
f 50/1/1 52/46/1 51/47/1
f 50/1/1 53/10/1 52/46/1
f 54/1/1 56/48/1 55/49/1
f 54/1/1 57/50/1 56/48/1
f 57/50/1 59/43/1 58/51/1
f 57/50/1 60/52/1 59/43/1
f 54/1/1 63/53/1 57/50/1
f 63/53/1 60/52/1 57/50/1
f 63/53/1 61/54/1 60/52/1
f 54/1/1 64/10/1 63/53/1
f 62/55/1 61/54/1 63/53/1
f 65/1/1 67/33/1 66/34/1
f 65/1/1 68/35/1 67/33/1
f 72/10/1 68/35/1 65/1/1
f 71/36/1 69/37/1 72/10/1
f 69/37/2 68/35/2 72/10/2
f 71/36/1 70/38/1 69/37/1
f 77/51/1 79/52/1 78/43/1
f 77/51/1 81/55/1 79/52/1
f 81/55/1 80/54/1 79/52/1
f 77/51/1 82/53/1 81/55/1
f 83/10/1 80/54/1 81/55/1
f 77/51/1 75/48/1 82/53/1
f 75/48/1 83/10/1 82/53/1
f 75/48/1 74/49/1 83/10/1
f 74/49/1 80/54/1 83/10/1
f 77/51/1 76/50/1 75/48/1
f 73/1/1 80/54/1 74/49/1
f 84/1/2 85/3/2 102/2/2
f 102/2/2 85/3/2 86/4/2
f 102/2/2 86/4/2 87/5/2
f 102/2/2 87/5/2 88/6/2
f 102/2/2 88/6/2 89/7/2
f 102/2/2 89/7/2 90/8/2
f 102/2/2 90/8/2 101/9/2
f 101/9/2 90/8/2 115/10/2
f 115/10/2 90/8/2 91/11/2
f 84/1/2 102/2/2 103/12/2
f 114/13/2 115/10/2 91/11/2
f 113/14/2 114/13/2 91/11/2
f 112/15/2 113/14/2 91/11/2
f 112/15/2 91/11/2 92/16/2
f 111/17/2 112/15/2 92/16/2
f 110/18/2 111/17/2 92/16/2
f 109/19/2 110/18/2 92/16/2
f 109/19/2 92/16/2 93/20/2
f 108/21/2 109/19/2 93/20/2
f 107/22/2 108/21/2 93/20/2
f 107/22/2 93/20/2 94/23/2
f 106/24/2 107/22/2 94/23/2
f 105/25/2 106/24/2 94/23/2
f 104/26/2 105/25/2 94/23/2
f 84/1/2 103/12/2 99/27/2
f 99/27/2 103/12/2 104/26/2
f 99/27/2 104/26/2 94/23/2
f 99/27/2 94/23/2 95/28/2
f 99/27/2 95/28/2 96/29/2
f 99/27/2 96/29/2 97/30/2
f 99/27/2 97/30/2 98/31/2
f 84/1/2 99/27/2 100/32/2
f 116/1/2 117/34/2 118/33/2
f 116/1/2 118/33/2 119/35/2
f 123/10/1 116/1/1 119/35/1
f 122/36/2 123/10/2 120/37/2
f 120/37/1 123/10/1 119/35/1
f 122/36/2 120/37/2 121/38/2
f 124/1/2 125/40/2 126/39/2
f 124/1/2 126/39/2 127/41/2
f 127/41/2 128/43/2 129/42/2
f 127/41/2 129/42/2 130/44/2
f 124/1/2 127/41/2 130/44/2
f 132/10/2 124/1/2 130/44/2
f 132/10/2 130/44/2 131/45/2
f 133/1/2 134/47/2 135/46/2
f 133/1/2 135/46/2 136/10/2
f 137/1/2 138/49/2 139/48/2
f 137/1/2 139/48/2 140/50/2
f 140/50/2 141/51/2 142/43/2
f 140/50/2 142/43/2 143/52/2
f 137/1/2 140/50/2 146/53/2
f 146/53/2 140/50/2 143/52/2
f 146/53/2 143/52/2 144/54/2
f 137/1/2 146/53/2 147/10/2
f 145/55/2 146/53/2 144/54/2
f 148/1/2 149/34/2 150/33/2
f 148/1/2 150/33/2 151/35/2
f 155/10/1 148/1/1 151/35/1
f 154/36/2 155/10/2 152/37/2
f 152/37/1 155/10/1 151/35/1
f 154/36/2 152/37/2 153/38/2
f 160/51/2 161/43/2 162/52/2
f 160/51/2 162/52/2 164/55/2
f 164/55/2 162/52/2 163/54/2
f 160/51/2 164/55/2 165/53/2
f 166/10/2 164/55/2 163/54/2
f 160/51/2 165/53/2 158/48/2
f 158/48/2 165/53/2 166/10/2
f 158/48/2 166/10/2 157/49/2
f 157/49/2 166/10/2 163/54/2
f 160/51/2 158/48/2 159/50/2
f 156/1/2 157/49/2 163/54/2
s 1
f 168/56/3 170/57/3 169/40/3 167/1/3
f 170/57/3 172/58/4 171/39/4 169/40/3
f 172/58/4 174/59/4 173/41/4 171/39/4
f 174/59/4 176/60/5 175/43/5 173/41/4
f 176/60/5 178/61/6 177/42/6 175/43/5
f 178/61/6 180/62/7 179/44/7 177/42/6
f 180/62/7 182/63/8 181/45/8 179/44/7
f 182/63/8 168/64/3 167/10/3 181/45/8
f 184/56/9 186/65/10 185/47/10 183/1/9
f 186/65/10 188/66/11 187/46/11 185/47/10
f 188/66/11 184/64/9 183/10/9 187/46/11
f 190/56/12 192/57/13 191/40/13 189/1/12
f 192/57/13 194/58/14 193/39/14 191/40/13
f 194/58/14 196/59/15 195/41/15 193/39/14
f 196/59/15 198/60/15 197/43/15 195/41/15
f 198/60/15 200/61/15 199/42/15 197/43/15
f 200/61/15 202/62/12 201/44/12 199/42/15
f 202/62/12 204/63/12 203/45/12 201/44/12
f 204/63/12 190/64/12 189/10/12 203/45/12
f 206/56/12 208/67/13 207/68/13 205/1/12
f 208/67/13 210/69/14 209/70/14 207/68/13
f 210/69/14 212/71/16 211/72/16 209/70/14
f 212/71/16 214/73/17 213/74/17 211/72/16
f 214/73/17 216/75/18 215/76/18 213/74/17
f 216/75/18 218/77/19 217/78/19 215/76/18
f 218/77/19 220/79/20 219/80/20 217/78/19
f 220/79/20 222/81/21 221/82/21 219/80/20
f 222/81/21 224/83/22 223/84/22 221/82/21
f 224/83/22 226/85/15 225/86/15 223/84/22
f 226/85/15 206/64/12 205/10/12 225/86/15
f 228/56/12 230/58/13 229/39/13 227/1/12
f 230/58/13 232/60/14 231/43/14 229/39/13
f 232/60/14 234/62/15 233/44/15 231/43/14
f 234/62/15 228/64/12 227/10/12 233/44/15
f 236/56/23 238/87/24 237/88/24 235/1/23
f 238/87/24 240/89/25 239/90/25 237/88/24
f 240/89/25 242/65/26 241/47/26 239/90/25
f 242/65/26 244/91/27 243/92/27 241/47/26
f 244/91/27 246/93/28 245/94/28 243/92/27
f 246/93/28 248/66/29 247/46/29 245/94/28
f 248/66/29 250/95/15 249/96/15 247/46/29
f 250/95/15 252/97/12 251/98/12 249/96/15
f 252/97/12 236/64/23 235/10/23 251/98/12
f 254/56/12 256/57/13 255/40/13 253/1/12
f 256/57/13 258/58/14 257/39/14 255/40/13
f 258/58/14 260/59/15 259/41/15 257/39/14
f 260/59/15 262/60/15 261/43/15 259/41/15
f 262/60/15 264/61/15 263/42/15 261/43/15
f 264/61/15 266/62/12 265/44/12 263/42/15
f 266/62/12 268/63/12 267/45/12 265/44/12
f 268/63/12 254/64/12 253/10/12 267/45/12
f 270/56/12 272/99/13 271/100/13 269/1/12
f 272/99/13 274/101/30 273/102/30 271/100/13
f 274/101/30 276/103/31 275/104/31 273/102/30
f 276/103/31 278/105/32 277/106/32 275/104/31
f 278/105/32 280/107/33 279/108/33 277/106/32
f 280/107/33 282/109/34 281/110/34 279/108/33
f 282/109/34 284/111/35 283/112/35 281/110/34
f 284/111/35 286/113/36 285/114/36 283/112/35
f 286/113/36 288/115/37 287/116/37 285/114/36
f 288/115/37 290/117/38 289/118/38 287/116/37
f 290/117/38 292/119/39 291/120/39 289/118/38
f 292/119/39 294/121/40 293/122/40 291/120/39
f 294/121/40 296/123/41 295/124/41 293/122/40
f 296/123/41 298/125/42 297/126/42 295/124/41
f 298/125/42 300/127/15 299/128/15 297/126/42
f 300/127/15 302/129/15 301/130/15 299/128/15
f 302/129/15 270/64/12 269/10/12 301/130/15
f 304/56/43 306/131/15 305/132/15 303/1/43
f 306/131/15 308/133/14 307/134/14 305/132/15
f 308/133/14 310/135/44 309/48/44 307/134/14
f 310/135/44 312/136/45 311/137/45 309/48/44
f 312/136/45 314/65/46 313/47/46 311/137/45
f 314/65/46 316/138/47 315/51/47 313/47/46
f 316/138/47 318/139/48 317/140/48 315/51/47
f 318/139/48 320/141/49 319/142/49 317/140/48
f 320/141/49 322/143/50 321/52/50 319/142/49
f 322/143/50 324/66/51 323/46/51 321/52/50
f 324/66/51 326/144/52 325/145/52 323/46/51
f 326/144/52 328/146/53 327/55/53 325/145/52
f 328/146/53 330/147/54 329/148/54 327/55/53
f 330/147/54 332/149/55 331/150/55 329/148/54
f 332/149/55 304/64/43 303/10/43 331/150/55
