# Blender 4.0.2
# www.blender.org
mtllib monitori.mtl
o Monitori
v -0.747351 1.858569 0.572784
v -0.747351 0.691550 0.742153
v 0.747351 1.858569 0.572784
v 0.747351 0.691550 0.742153
v -0.663912 -0.002145 0.699411
v -0.663912 -0.001463 -0.628416
v 0.663912 -0.002145 0.699411
v 0.663912 -0.001463 -0.628416
v -0.926540 2.014177 -0.104039
v -0.978758 1.963266 -0.096765
v -1.000000 1.998618 -0.010917
v -0.952577 2.045620 -0.017308
v -0.680840 1.715125 -0.558357
v -0.664032 1.683682 -0.645088
v -0.711455 1.636717 -0.638373
v -0.732637 1.663900 -0.551498
v -0.711455 0.495515 -0.474714
v -0.664032 0.448555 -0.467959
v -0.681883 0.447259 -0.373888
v -0.733014 0.496238 -0.384237
v -0.923950 0.377847 0.115191
v -0.952577 0.376551 0.209262
v -1.000000 0.423556 0.202892
v -0.978478 0.425819 0.112081
v 0.711455 1.636717 -0.638373
v 0.664031 1.683682 -0.645088
v 0.680840 1.715125 -0.558357
v 0.732637 1.663900 -0.551498
v 0.926540 2.014177 -0.104039
v 0.952577 2.045620 -0.017308
v 1.000000 1.998618 -0.010917
v 0.978758 1.963266 -0.096765
v 0.681883 0.447259 -0.373888
v 0.664031 0.448555 -0.467959
v 0.711455 0.495515 -0.474714
v 0.733014 0.496238 -0.384237
v 0.923950 0.377847 0.115190
v 0.978478 0.425819 0.112081
v 1.000000 0.423556 0.202892
v 0.952577 0.376551 0.209262
v -0.711455 1.589463 -1.053117
v -0.664032 1.636423 -1.059872
v -0.664032 1.584112 -1.100258
v -0.711455 0.448261 -0.889458
v -0.664032 0.442871 -0.936594
v -0.664032 0.401296 -0.882743
v 0.711455 1.589463 -1.053117
v 0.664031 1.584112 -1.100258
v 0.664031 1.636423 -1.059872
v 0.711455 0.448261 -0.889458
v 0.664031 0.401296 -0.882743
v 0.664031 0.442871 -0.936594
v -0.952766 2.071021 0.622881
v -0.952577 2.111985 0.565166
v -1.000000 2.064981 0.571535
v -0.952985 0.495592 0.838758
v -1.000000 0.489918 0.785344
v -0.952577 0.442916 0.791736
v 1.000000 2.064981 0.571535
v 0.952577 2.111985 0.565165
v 0.952766 2.071021 0.622881
v 0.952577 0.442916 0.791735
v 1.000000 0.489918 0.785344
v 0.952985 0.495592 0.838758
v 0.139919 0.422560 -0.056780
v 0.092496 0.422585 -0.104203
v 0.139919 0.422465 0.128213
v 0.092496 0.422441 0.175636
v -0.139919 0.422560 -0.056780
v -0.092496 0.422585 -0.104203
v -0.092496 0.422441 0.175636
v -0.139919 0.422465 0.128213
v 0.617608 0.134085 -0.515762
v 0.663912 0.076476 -0.628376
v 0.551328 0.134119 -0.582042
v 0.119943 0.229328 -0.150606
v 0.092496 0.286971 -0.104273
v 0.139919 0.286946 -0.056849
v 0.186223 0.229294 -0.084326
v 0.551328 0.133485 0.653176
v 0.663912 0.075794 0.699450
v 0.617608 0.133519 0.586896
v 0.119943 0.229136 0.221841
v 0.186223 0.229170 0.155561
v 0.139919 0.286851 0.128143
v 0.092496 0.286827 0.175566
v -0.551329 0.134119 -0.582042
v -0.663912 0.076476 -0.628376
v -0.617608 0.134085 -0.515762
v -0.119943 0.229328 -0.150606
v -0.186223 0.229294 -0.084326
v -0.139919 0.286946 -0.056849
v -0.092496 0.286971 -0.104273
v -0.617608 0.133519 0.586896
v -0.663912 0.075794 0.699451
v -0.551328 0.133485 0.653176
v -0.186223 0.229171 0.155561
v -0.119943 0.229136 0.221841
v -0.092496 0.286827 0.175566
v -0.139919 0.286851 0.128143
v -0.757950 1.875399 0.626873
v -0.805325 1.926395 0.655960
v -0.757869 0.687351 0.798212
v -0.805069 0.644431 0.838454
v 0.805325 1.926395 0.655960
v 0.757950 1.875399 0.626873
v 0.805069 0.644431 0.838454
v 0.757869 0.687351 0.798212
vn -0.0000 -0.1420 -0.9899
vn 0.8926 -0.0620 -0.4465
vn 1.0000 -0.0000 -0.0000
vn -0.8926 -0.0620 -0.4465
vn -1.0000 -0.0000 -0.0000
vn -0.0000 0.9936 -0.1132
vn -0.0000 -0.9936 0.1132
vn -0.0000 0.9972 0.0747
vn -0.0000 -0.9901 -0.1405
vn -0.0000 0.1436 0.9896
vn -0.1112 0.1372 0.9843
vn -0.0000 0.0020 1.0000
vn -0.0000 0.2230 0.9748
vn 0.1112 0.1372 0.9843
vn 0.9823 0.0268 0.1852
vn -0.9823 0.0268 0.1852
vn -0.0000 0.0005 -1.0000
vn -0.0000 -1.0000 -0.0005
vn -0.0000 -0.0005 1.0000
vn -0.0000 0.9765 -0.2155
vn -0.0000 0.9763 0.2165
vn 0.2160 0.9764 0.0005
vn -0.2160 0.9764 0.0005
vn -0.6645 0.6174 -0.4210
vn -0.6799 0.6367 -0.3638
vn -0.6768 -0.7214 -0.1468
vn -0.6592 -0.7268 -0.1928
vn 0.6799 0.6367 -0.3638
vn 0.6645 0.6174 -0.4210
vn 0.6768 -0.7214 -0.1468
vn 0.6592 -0.7268 -0.1928
vn -0.5832 0.4964 -0.6430
vn -0.5720 -0.6493 -0.5013
vn 0.5832 0.4964 -0.6430
vn 0.5720 -0.6493 -0.5013
vn -0.5906 0.6590 0.4658
vn -0.6068 -0.5319 0.5906
vn 0.5906 0.6590 0.4658
vn 0.6068 -0.5319 0.5906
vn -0.0000 1.0000 0.0005
vn 0.3229 0.8898 -0.3224
vn 0.5245 0.6710 -0.5241
vn 0.3229 0.8895 0.3233
vn 0.5245 0.6705 0.5248
vn -0.3229 0.8898 -0.3224
vn -0.5245 0.6710 -0.5241
vn -0.3229 0.8895 0.3233
vn -0.5245 0.6705 0.5248
vn 0.5939 -0.7018 -0.3934
vn 0.9728 -0.0327 -0.2293
vn 0.5792 0.5009 -0.6431
vn 0.9728 -0.0313 -0.2296
vn -0.5792 0.5009 -0.6431
vn -0.9728 -0.0327 -0.2293
vn -0.5939 -0.7018 -0.3934
vn -0.9728 -0.0313 -0.2296
vn -0.0000 0.9401 -0.3408
vn -0.0000 -0.9999 -0.0138
vn 0.7071 -0.1004 -0.6999
vn -0.7071 -0.1004 -0.6999
vn -0.0000 0.6111 -0.7916
vn -0.0000 -0.7915 -0.6111
vn 0.7071 -0.7026 0.0800
vn 0.7071 0.7026 -0.0800
vn -0.7071 -0.7026 0.0800
vn -0.7071 0.7026 -0.0800
vn -0.0000 -0.6659 0.7460
vn -0.7454 0.0901 0.6605
vn 0.7454 0.0901 0.6605
vn -0.0000 0.8155 0.5788
vn 0.1093 0.9879 0.1098
vn 0.7797 0.6261 0.0003
vn 0.1093 0.9880 -0.1088
vn -0.1093 0.9879 0.1098
vn -0.0000 0.6257 0.7801
vn -0.1093 0.9880 -0.1088
vn -0.7797 0.6261 0.0003
vn -0.0000 0.6265 -0.7794
vn 0.7071 0.0004 -0.7071
vn 0.7071 -0.0004 0.7071
vn -0.7071 0.0004 -0.7071
vn -0.7071 -0.0004 0.7071
vn -0.0000 0.8353 -0.5498
vn -0.0000 0.6840 0.7295
vn 0.5937 0.1142 0.7966
vn -0.5937 0.1142 0.7966
vn -0.0000 -0.4955 0.8686
vn -0.0000 -0.9548 0.2971
vt 0.148293 0.349041
vt 0.148296 0.421475
vt 0.075272 0.421479
vt 0.075269 0.349045
vt 0.035887 0.315361
vt 0.035929 0.454777
vt 0.003625 0.486732
vt 0.003645 0.283456
vt 0.815880 0.280517
vt 0.815891 0.489928
vt 0.705720 0.489934
vt 0.705709 0.280523
vt 0.192332 0.454768
vt 0.192416 0.315353
vt 0.278833 0.283441
vt 0.278926 0.486717
vt 0.041862 0.450350
vt 0.041855 0.320228
vt 0.069517 0.346622
vt 0.069521 0.423954
vt 0.405484 0.280539
vt 0.405495 0.489950
vt 0.295324 0.489956
vt 0.295313 0.280545
vt 0.405498 0.501461
vt 0.405509 0.712847
vt 0.295334 0.712853
vt 0.295323 0.501467
vt 0.046108 0.315331
vt 0.177450 0.315324
vt 0.150819 0.342926
vt 0.072742 0.342930
vt 0.642520 0.298309
vt 0.468675 0.298319
vt 0.469543 0.290424
vt 0.641651 0.290414
vt 0.405474 0.057642
vt 0.405485 0.269028
vt 0.295310 0.269034
vt 0.295299 0.057648
vt 0.009678 0.277362
vt 0.213876 0.277351
vt 0.182277 0.309137
vt 0.041280 0.309144
vt 0.177457 0.455189
vt 0.046115 0.455196
vt 0.072746 0.427594
vt 0.150823 0.427590
vt 0.642529 0.472154
vt 0.468684 0.472163
vt 0.420486 0.494088
vt 0.420446 0.276389
vt 0.439475 0.282998
vt 0.439453 0.487499
vt 0.181703 0.320220
vt 0.181710 0.450343
vt 0.154048 0.423949
vt 0.154044 0.346617
vt 0.446741 0.251317
vt 0.664449 0.251306
vt 0.648180 0.271456
vt 0.463013 0.271467
vt 0.664453 0.512646
vt 0.446764 0.512658
vt 0.453351 0.491455
vt 0.657864 0.491444
vt 0.671762 0.487486
vt 0.671718 0.282985
vt 0.690746 0.276375
vt 0.690729 0.494074
vt 0.454538 0.480119
vt 0.454636 0.290425
vt 0.656558 0.290414
vt 0.656676 0.480108
vt 0.965737 0.831104
vt 0.965743 0.941079
vt 0.850967 0.941085
vt 0.850961 0.831110
vt 0.498804 0.763438
vt 0.498798 0.638848
vt 0.515782 0.655831
vt 0.515787 0.746453
vt 0.606405 0.655826
vt 0.606410 0.746449
vt 0.618491 0.831122
vt 0.618497 0.941097
vt 0.503720 0.941103
vt 0.503715 0.831128
vt 0.792114 0.831113
vt 0.792120 0.941088
vt 0.677344 0.941094
vt 0.677338 0.831119
vt 0.444868 0.831131
vt 0.444874 0.941106
vt 0.330097 0.941113
vt 0.330091 0.831137
vt 0.495068 0.642497
vt 0.495074 0.759790
vt 0.476303 0.765229
vt 0.476296 0.637060
vt 0.623394 0.763431
vt 0.623387 0.638842
vt 0.624252 0.764289
vt 0.651152 0.759782
vt 0.651146 0.633457
vt 0.669917 0.628018
vt 0.669924 0.765220
vt 0.619738 0.635112
vt 0.502446 0.635118
vt 0.497007 0.616347
vt 0.625176 0.616340
vt 0.623387 0.638842
vt 0.502453 0.769174
vt 0.619746 0.769168
vt 0.625186 0.806627
vt 0.497017 0.806633
vt 0.275766 0.492235
vt 0.286410 0.489822
vt 0.286410 0.496071
vt 0.184854 0.458324
vt 0.181712 0.455189
vt 0.184854 0.454636
vt 0.184847 0.312188
vt 0.179976 0.312188
vt 0.186967 0.310068
vt 0.286398 0.265858
vt 0.295121 0.274295
vt 0.286398 0.271908
vt 0.041436 0.461145
vt 0.824806 0.493475
vt 0.815893 0.496177
vt 0.824805 0.486700
vt 0.286387 0.060824
vt 0.286386 0.054774
vt 0.295109 0.052386
vt 0.414410 0.496798
vt 0.405497 0.496199
vt 0.414398 0.269073
vt 0.405292 0.274290
vt 0.705718 0.496183
vt 0.696805 0.489947
vt 0.405280 0.052380
vt 0.414387 0.057596
vt 0.474297 0.941105
vt 0.647920 0.941096
vt 0.487685 0.628963
vt 0.474887 0.614940
vt 0.474280 0.614333
vt 0.503703 0.577127
vt 0.624479 0.636957
vt 0.671324 0.614931
vt 0.671931 0.614324
vt 0.715338 0.643747
vt 0.477002 0.771983
vt 0.493214 0.765153
vt 0.474897 0.809444
vt 0.493637 0.819955
vt 0.474290 0.810655
vt 0.641794 0.776567
vt 0.671333 0.787340
vt 0.715344 0.758523
vt 0.671940 0.787947
vt 0.009364 0.493407
vt 0.824794 0.282287
vt 0.189290 0.459979
vt 0.219214 0.277817
vt 0.217482 0.496209
vt 0.006095 0.496221
vt 0.214213 0.493397
vt 0.182137 0.461137
vt 0.414410 0.501440
vt 0.414421 0.712868
vt 0.618480 0.577120
vt 0.652560 0.768569
vt 0.441733 0.758533
vt 0.441727 0.643756
vt 0.995161 0.831102
vt 0.995167 0.941077
vt 0.460730 0.480119
vt 0.650484 0.480109
s 0
usemtl Material.002
f 45/1/1 43/2/1 48/3/1 52/4/1
f 36/5/2 28/6/2 32/7/2 38/8/2
f 39/9/3 31/10/3 59/11/3 63/12/3
f 16/13/4 20/14/4 24/15/4 10/16/4
f 25/17/3 35/18/3 50/19/3 47/20/3
f 57/21/5 55/22/5 11/23/5 23/24/5
f 54/25/6 60/26/6 30/27/6 12/28/6
f 34/29/7 18/30/7 46/31/7 51/32/7
f 4/33/8 2/34/8 103/35/8 108/36/8
f 62/37/7 58/38/7 22/39/7 40/40/7
f 37/41/9 21/42/9 19/43/9 33/44/9
f 14/45/6 26/46/6 49/47/6 42/48/6
f 4/33/10 3/49/10 1/50/10 2/34/10
f 53/51/11 56/52/11 104/53/11 102/54/11
f 17/55/5 15/56/5 41/57/5 44/58/5
f 56/59/12 64/60/12 107/61/12 104/62/12
f 61/63/13 53/64/13 102/65/13 105/66/13
f 105/67/14 107/68/14 64/69/14 61/70/14
f 2/34/15 1/50/15 101/71/15 103/72/15
f 3/49/16 4/33/16 108/73/16 106/74/16
f 78/75/3 65/76/3 67/77/3 85/78/3
f 88/79/17 74/80/17 8/81/17 6/82/17
f 7/83/18 5/84/18 6/82/18 8/81/18
f 100/85/5 72/86/5 69/87/5 92/88/5
f 86/89/19 68/90/19 71/91/19 99/92/19
f 93/93/17 70/94/17 66/95/17 77/96/17
f 75/97/20 87/98/20 90/99/20 76/100/20
f 95/101/5 88/79/5 6/82/5 5/84/5
f 81/102/19 95/103/19 5/84/19 7/83/19
f 96/104/21 80/105/21 83/106/21 98/107/21
f 82/108/22 73/109/22 79/110/22 84/111/22
f 74/80/3 81/112/3 7/83/3 8/81/3
f 89/113/23 94/114/23 97/115/23 91/116/23
f 9/117/24 10/16/24 11/118/24 12/119/24
f 13/120/25 14/121/25 15/56/25 16/122/25
f 17/123/26 18/124/26 19/43/26 20/125/26
f 21/126/27 22/39/27 23/127/27 24/128/27
f 25/17/28 26/46/28 27/129/28 28/6/28
f 29/130/29 30/131/29 31/10/29 32/132/29
f 33/44/30 34/29/30 35/18/30 36/5/30
f 37/133/31 38/134/31 39/135/31 40/40/31
f 41/57/32 42/48/32 43/2/32
f 44/58/33 45/1/33 46/31/33
f 47/20/34 48/3/34 49/47/34
f 50/19/35 51/32/35 52/4/35
f 53/136/36 54/137/36 55/22/36
f 56/138/37 57/139/37 58/38/37
f 59/11/38 60/140/38 61/141/38
f 62/37/39 63/142/39 64/143/39
f 70/144/40 69/87/40 72/145/40 71/91/40 68/90/40 67/77/40 65/76/40 66/95/40
f 73/109/41 74/80/41 75/146/41
f 76/147/42 77/148/42 78/149/42 79/110/42
f 80/105/43 81/112/43 82/150/43
f 83/106/44 84/151/44 85/152/44 86/153/44
f 87/154/45 88/155/45 89/113/45
f 90/156/46 91/116/46 92/157/46 93/158/46
f 94/159/47 95/103/47 96/104/47
f 97/160/48 98/107/48 99/161/48 100/162/48
f 37/41/49 33/44/49 36/5/49 38/8/49
f 35/18/50 25/17/50 28/6/50 36/5/50
f 27/129/51 29/163/51 32/7/51 28/6/51
f 31/10/52 39/9/52 38/164/52 32/132/52
f 9/117/53 13/165/53 16/13/53 10/16/53
f 15/56/54 17/55/54 20/14/54 16/13/54
f 19/43/55 21/42/55 24/166/55 20/125/55
f 23/24/56 11/23/56 10/16/56 24/15/56
f 12/167/57 30/168/57 29/163/57 9/169/57
f 26/46/57 14/45/57 13/170/57 27/129/57
f 40/40/58 22/39/58 21/126/58 37/133/58
f 18/30/58 34/29/58 33/44/58 19/43/58
f 52/4/59 48/3/59 47/20/59 50/19/59
f 43/2/60 45/1/60 44/58/60 41/57/60
f 48/3/61 43/2/61 42/48/61 49/47/61
f 45/1/62 52/4/62 51/32/62 46/31/62
f 34/29/63 51/32/63 50/19/63 35/18/63
f 49/47/64 26/46/64 25/17/64 47/20/64
f 17/55/65 44/58/65 46/31/65 18/30/65
f 41/57/66 15/56/66 14/45/66 42/48/66
f 58/38/67 62/37/67 64/143/67 56/138/67
f 55/22/68 57/21/68 56/52/68 53/51/68
f 63/12/69 59/11/69 61/70/69 64/69/69
f 60/26/70 54/25/70 53/171/70 61/172/70
f 22/39/65 58/38/65 57/21/65 23/24/65
f 54/25/66 12/28/66 11/23/66 55/22/66
f 59/11/64 31/10/64 30/131/64 60/140/64
f 39/135/63 63/142/63 62/37/63 40/40/63
f 83/106/71 80/105/71 82/108/71 84/111/71
f 81/112/72 74/80/72 73/109/72 82/108/72
f 75/97/73 76/100/73 79/110/73 73/109/73
f 78/149/72 85/173/72 84/111/72 79/110/72
f 97/160/74 94/174/74 96/104/74 98/107/74
f 95/103/75 81/102/75 80/105/75 96/104/75
f 86/153/75 99/161/75 98/107/75 83/106/75
f 90/156/76 87/154/76 89/113/76 91/116/76
f 88/79/77 95/101/77 94/114/77 89/113/77
f 100/85/77 92/88/77 91/116/77 97/115/77
f 74/80/78 88/79/78 87/98/78 75/97/78
f 93/175/78 77/176/78 76/100/78 90/99/78
f 77/177/79 66/178/79 65/76/79 78/75/79
f 68/90/80 86/89/80 85/78/80 67/77/80
f 92/88/81 69/87/81 70/94/81 93/93/81
f 72/86/82 100/85/82 99/92/82 71/91/82
f 9/169/83 29/163/83 27/129/83 13/170/83
f 104/62/84 107/61/84 108/36/84 103/35/84
f 102/54/85 104/53/85 103/72/85 101/71/85
f 107/68/86 105/67/86 106/74/86 108/73/86
f 105/66/87 102/65/87 101/179/87 106/180/87
f 1/50/88 3/49/88 106/180/88 101/179/88
