# Blender 4.2.1 LTS
# www.blender.org
mtllib pingu.mtl
o Cube
v 0.428738 2.183130 -0.561834
v 0.857476 2.183130 -0.357623
v 0.857476 1.876384 -0.357623
v 0.857476 2.183130 0.398788
v 0.428738 2.183130 0.650870
v 0.857476 1.876384 0.398788
v -0.428738 2.183130 -0.561834
v -0.857476 2.183130 -0.357623
v -0.857476 1.876384 -0.357623
v -0.857476 2.183130 0.398788
v -0.428738 2.183130 0.650870
v -0.857476 1.876384 0.398788
v 1.638333 0.817983 -0.101049
v 1.638333 0.817983 0.142214
v -1.638333 0.817983 -0.101049
v -1.638333 0.817983 0.142214
v 0.428738 0.208384 -0.357623
v 0.489435 0.708384 -0.668920
v 0.978870 0.708384 -0.411166
v 0.978870 0.708384 0.452331
v 0.489435 0.708384 0.757957
v 0.428738 0.208384 0.398788
v -0.978870 0.708384 -0.411166
v -0.489435 0.708384 -0.668920
v -0.428738 0.208384 -0.357623
v -0.428738 0.208384 0.398788
v -0.489435 0.708384 0.757957
v -0.978870 0.708384 0.452331
v -0.685981 0.071313 -0.092879
v -0.514485 0.071313 -0.092879
v -0.514485 0.071313 0.134044
v -0.685981 0.071313 0.134044
v 0.514485 0.071313 -0.092879
v 0.685981 0.071313 -0.092879
v 0.685981 0.071313 0.134044
v 0.514485 0.071313 0.134044
v -0.685981 0.000000 -0.131841
v -0.514485 0.000000 -0.131841
v -0.171495 0.000000 1.020146
v -0.857476 0.000000 1.020146
v 0.514485 0.000000 -0.131841
v 0.685981 0.000000 -0.131841
v 0.857476 0.000000 1.020146
v 0.171495 0.000000 1.020146
v 0.428738 2.614138 -0.198226
v 0.530102 2.485120 -0.390214
v 0.248044 2.614138 -0.357623
v 0.248044 2.614138 0.398788
v 0.523795 2.482802 0.443896
v 0.428738 2.614138 0.239391
v -0.428738 2.614138 -0.198226
v -0.248044 2.614138 -0.357623
v -0.530102 2.485120 -0.390214
v -0.248044 2.614138 0.398788
v -0.428738 2.614138 0.239391
v -0.523795 2.482802 0.443896
v 0.428738 3.107401 -0.198226
v 0.248044 3.107401 -0.357623
v 0.248044 3.107401 0.398788
v 0.428738 3.107401 0.239391
v -0.428738 3.107401 -0.198226
v -0.248044 3.107401 -0.357623
v -0.248044 3.107401 0.398788
v -0.428738 3.107401 0.239391
v 0.248044 2.671043 0.398788
v -0.248044 2.671043 0.398788
v 0.161147 2.744574 0.822658
v 0.248044 2.899124 0.398788
v -0.248044 2.899124 0.398788
v -0.161147 2.744574 0.822658
v 0.455613 3.119231 -0.211942
v 0.263592 3.119231 -0.381330
v 0.263592 3.119231 0.422495
v 0.455613 3.119231 0.253107
v -0.455613 3.119231 -0.211942
v -0.263592 3.119231 -0.381330
v -0.263592 3.119231 0.422495
v -0.455613 3.119231 0.253107
v 0.455613 3.210396 -0.211942
v 0.263592 3.210396 -0.381330
v 0.263592 3.210396 0.422495
v 0.455613 3.210396 0.253107
v -0.455613 3.210396 -0.211942
v -0.263592 3.210396 -0.381330
v -0.263592 3.210396 0.422495
v -0.455613 3.210396 0.253107
v 0.455613 3.289902 -0.211942
v 0.263592 3.289902 -0.381330
v 0.081316 3.490342 -0.051149
v 0.263592 3.289902 0.422495
v 0.455613 3.289902 0.253107
v 0.081316 3.490342 0.092314
v -0.455613 3.289902 -0.211942
v -0.081316 3.490342 -0.051149
v -0.263592 3.289902 -0.381330
v -0.263592 3.289902 0.422495
v -0.081316 3.490342 0.092314
v -0.455613 3.289902 0.253107
v 0.081316 3.681833 -0.051149
v 0.081316 3.681833 0.092314
v -0.081316 3.681833 -0.051149
v -0.081316 3.681833 0.092314
v 0.296870 2.482802 0.443896
v -0.226925 2.482802 0.443896
vn -0.8680 0.4965 -0.0000
vn 0.5356 0.0795 0.8407
vn 1.0000 -0.0000 -0.0000
vn 0.3122 -0.0000 -0.9500
vn 0.6731 0.7395 0.0037
vn -0.0000 0.5683 0.8228
vn 0.4668 0.0775 -0.8810
vn -0.6731 0.7395 0.0037
vn -0.0000 0.0724 0.9974
vn -0.9946 0.1034 -0.0000
vn 0.9946 0.1034 -0.0000
vn -0.0000 0.0724 -0.9974
vn -0.4668 0.0775 -0.8810
vn -0.0000 1.0000 -0.0000
vn -0.0000 -0.0000 -1.0000
vn -1.0000 -0.0000 -0.0000
vn 0.4035 0.3460 -0.8471
vn 0.8680 0.4965 -0.0000
vn 0.3122 -0.0000 0.9500
vn -0.3122 -0.0000 -0.9500
vn -0.3122 -0.0000 0.9500
vn 0.8047 -0.5937 -0.0000
vn -0.8047 -0.5937 -0.0000
vn -0.0000 -1.0000 -0.0000
vn 0.3983 -0.5192 -0.7562
vn 0.4393 -0.5587 0.7035
vn -0.3983 -0.5192 -0.7562
vn -0.4393 -0.5587 0.7035
vn 0.8478 -0.5303 -0.0000
vn -0.0000 -0.5285 -0.8489
vn -0.0000 -0.5834 0.8122
vn 0.3781 -0.6194 -0.6881
vn -0.5356 0.0795 0.8407
vn 0.7213 0.6690 -0.1794
vn -0.3781 -0.6194 -0.6881
vn -0.9086 -0.4177 -0.0000
vn -0.3781 -0.6194 0.6881
vn -0.0000 0.4795 -0.8776
vn -0.8478 -0.5303 -0.0000
vn 0.3781 -0.6194 0.6881
vn 0.9086 -0.4177 -0.0000
vn 0.9015 0.4180 -0.1121
vn -0.0000 0.9968 0.0802
vn -0.9015 0.4180 -0.1121
vn -0.7213 0.6690 -0.1794
vn -0.4648 0.3986 0.7906
vn 0.4648 0.3986 0.7906
vn -0.4035 0.3460 -0.8471
vn 0.3451 0.8532 -0.3912
vn 0.3434 0.8547 0.3893
vn -0.3451 0.8532 -0.3912
vn -0.3434 0.8547 0.3893
vn -0.0000 0.3248 0.9458
vn 0.7982 0.6024 0.0051
vn -0.7982 0.6024 0.0051
vn -0.0000 0.2449 -0.9695
vn -0.6615 -0.0000 -0.7499
vn 0.6615 -0.0000 -0.7499
vn -0.6615 -0.0000 0.7499
vn 0.6615 -0.0000 0.7499
vn -0.0000 0.4941 -0.8694
vn 0.2570 -0.9215 -0.2913
vn -0.2570 -0.9215 -0.2913
vn 0.4029 -0.9153 -0.0000
vn -0.0000 -0.8948 -0.4465
vn 0.2570 -0.9215 0.2913
vn -0.0000 -0.8948 0.4465
vn -0.2570 -0.9215 0.2913
vn -0.4029 -0.9153 -0.0000
vn -0.0000 -0.0000 1.0000
vn -0.0000 0.9395 0.3426
vn -0.9796 -0.0000 0.2008
vn 0.9796 -0.0000 0.2008
vn -0.0000 -0.9853 0.1709
vn 0.3163 0.8783 -0.3586
vn 0.3163 0.8783 0.3586
vn -0.3163 0.8783 -0.3586
vn -0.3163 0.8783 0.3586
vn -0.0000 0.8548 0.5189
vn 0.4721 0.8816 -0.0000
vn -0.4721 0.8816 -0.0000
vn -0.0000 0.8548 -0.5189
vt 0.223143 0.062157
vt 0.292094 0.186270
vt 0.292094 0.178458
vt 0.668102 0.806835
vt 0.543989 0.875786
vt 0.475038 0.751673
vt 0.599151 0.682722
vt 0.708734 0.587616
vt 0.668842 0.515811
vt 0.406086 0.627560
vt 0.530199 0.558609
vt 0.612094 0.506114
vt 0.688753 0.642628
vt 0.701884 0.770062
vt 0.722944 0.807969
vt 0.765063 0.883785
vt 0.786123 0.921692
vt 0.737054 0.930947
vt 0.337135 0.610869
vt 0.461247 0.434496
vt 0.261776 0.031008
vt 0.337498 0.168044
vt 0.612941 0.999899
vt 0.024131 0.838115
vt 0.095804 0.799940
vt 0.164756 0.924052
vt 0.392296 0.310383
vt 0.268183 0.486757
vt 0.242200 0.440769
vt 0.277356 0.343112
vt 0.285199 0.027681
vt 0.508774 0.373866
vt 0.468882 0.302061
vt 0.468882 0.302061
vt 0.339621 0.125640
vt 0.299729 0.053836
vt 0.299729 0.053836
vt 0.806894 0.084728
vt 0.850935 0.071292
vt 0.850935 0.140406
vt 0.099030 0.131109
vt 0.157860 0.765464
vt 0.281973 0.696512
vt 0.350925 0.820625
vt 0.226812 0.889577
vt 0.247498 0.634456
vt 0.344030 0.662036
vt 0.412981 0.786149
vt 0.385401 0.882681
vt 0.123385 0.703407
vt 0.261288 0.951633
vt 0.064554 0.069052
vt 0.188667 0.000101
vt 0.254167 0.030390
vt 0.806894 0.000101
vt 0.849442 0.055351
vt 0.806894 0.071091
vt 0.825030 0.209242
vt 0.806894 0.140608
vt 0.851242 0.140608
vt 0.523304 0.400020
vt 0.744689 0.798513
vt 0.730159 0.772359
vt 0.354151 0.151794
vt 0.784580 0.870318
vt 0.510191 0.426505
vt 0.424938 0.273049
vt 0.744689 0.798513
vt 0.780723 0.863374
vt 0.748546 0.805456
vt 0.468882 0.302061
vt 0.299729 0.053836
vt 0.784580 0.870318
vt 0.694996 0.501281
vt 0.734888 0.573086
vt 0.766801 0.461390
vt 0.806692 0.533194
vt 0.000000 0.000000
s 0
usemtl Material
f 10/1/1 8/2/1 15/3/1 16/1/1
f 5/4/2 21/5/2 20/6/2 6/6/2 4/7/2
f 50/8/3 45/9/3 57/9/3 60/8/3
f 3/10/4 2/11/4 13/11/4
f 46/12/5 49/13/5 4/7/5 2/11/5
f 49/14/6 103/15/6 104/16/6 56/17/6 11/18/6 5/4/6
f 3/10/7 19/10/7 18/19/7 1/20/7 2/11/7
f 56/21/8 53/22/8 8/2/8 10/1/8
f 27/23/9 21/5/9 5/4/9 11/18/9
f 12/24/10 9/25/10 23/25/10 28/26/10
f 3/10/11 6/6/11 20/6/11 19/10/11
f 7/27/12 1/20/12 18/19/12 24/28/12
f 7/27/13 24/28/13 23/29/13 9/30/13 8/2/13
f 63/31/14 54/31/14 66/31/14 69/31/14
f 47/32/15 52/33/15 62/34/15 58/32/15
f 51/35/16 55/36/16 64/37/16 61/35/16
f 1/38/17 46/39/17 2/40/17
f 2/11/18 4/7/18 14/7/18 13/11/18
f 4/7/19 6/6/19 14/7/19
f 8/2/20 9/30/20 15/3/20
f 12/41/21 10/1/21 16/1/21
f 9/25/22 12/24/22 16/1/22 15/3/22
f 6/6/23 3/10/23 13/11/23 14/7/23
f 25/42/24 17/43/24 22/44/24 26/45/24
f 17/43/25 18/46/25 19/47/25
f 20/48/26 21/49/26 22/44/26
f 23/25/27 24/50/27 25/42/27
f 26/45/28 27/51/28 28/26/28
f 25/42/29 26/45/29 31/45/29 30/42/29
f 17/43/30 25/42/30 24/50/30 18/46/30
f 26/45/31 22/44/31 21/49/31 27/51/31
f 17/43/32 19/47/32 34/47/32 33/43/32
f 27/52/33 11/53/33 10/1/33 12/41/33 28/41/33
f 30/42/34 31/45/34 39/45/34 38/42/34
f 23/25/35 25/42/35 30/42/35 29/25/35
f 28/26/36 23/25/36 29/25/36 32/26/36
f 26/45/37 28/26/37 32/26/37 31/45/37
f 33/43/38 34/47/38 42/47/38 41/43/38
f 22/44/39 17/43/39 33/43/39 36/44/39
f 20/48/40 22/44/40 36/44/40 35/48/40
f 19/10/41 20/6/41 35/6/41 34/10/41
f 38/42/24 39/45/24 40/26/24 37/25/24
f 44/44/24 41/43/24 42/10/24 43/6/24
f 34/10/42 35/6/42 43/6/42 42/10/42
f 29/25/38 30/42/38 38/42/38 37/25/38
f 35/48/43 36/44/43 44/44/43 43/48/43
f 32/26/44 29/25/44 37/25/44 40/26/44
f 31/45/43 32/26/43 40/26/43 39/45/43
f 36/44/45 33/43/45 41/43/45 44/44/45
f 10/1/46 11/53/46 56/54/46
f 4/55/47 49/56/47 5/57/47
f 7/58/48 8/59/48 53/60/48
f 45/61/49 46/61/49 47/32/49
f 48/62/50 49/63/50 50/63/50
f 51/35/51 52/64/51 53/64/51
f 54/31/52 55/36/52 56/31/52
f 48/62/53 54/65/53 56/17/53 104/16/53 103/15/53 49/14/53
f 45/9/54 50/8/54 49/13/54 46/12/54
f 55/36/55 51/35/55 53/22/55 56/21/55
f 52/33/56 47/32/56 46/66/56 53/67/56
f 51/35/57 61/35/57 62/64/57 52/64/57
f 57/61/58 45/61/58 47/32/58 58/32/58
f 54/31/59 63/31/59 64/37/59 55/36/59
f 59/68/60 48/62/60 50/63/60 60/63/60
f 53/67/61 46/66/61 1/20/61 7/27/61
f 57/61/62 58/32/62 72/32/62 71/61/62
f 62/64/63 61/35/63 75/35/63 76/64/63
f 60/8/64 57/9/64 71/9/64 74/8/64
f 58/32/65 62/34/65 76/34/65 72/32/65
f 59/68/66 60/63/66 74/63/66 73/68/66
f 63/65/67 59/68/67 73/68/67 77/65/67
f 64/37/68 63/31/68 77/31/68 78/37/68
f 61/35/69 64/37/69 78/37/69 75/35/69
f 48/62/14 59/68/14 68/68/14 65/62/14
f 54/65/70 48/62/70 65/62/70 66/65/70
f 59/68/70 63/65/70 69/65/70 68/68/70
f 70/69/71 67/70/71 68/68/71 69/65/71
f 66/65/72 70/69/72 69/65/72
f 67/70/73 65/62/73 68/68/73
f 65/62/74 67/70/74 70/69/74 66/65/74
f 78/37/59 77/31/59 85/31/59 86/37/59
f 73/68/60 74/63/60 82/63/60 81/68/60
f 76/64/57 75/35/57 83/35/57 84/64/57
f 77/65/70 73/68/70 81/68/70 85/65/70
f 71/61/58 72/32/58 80/32/58 79/61/58
f 74/8/3 71/9/3 79/9/3 82/8/3
f 75/35/16 78/37/16 86/37/16 83/35/16
f 72/32/15 76/34/15 84/34/15 80/32/15
f 85/65/70 81/68/70 90/68/70 96/65/70
f 81/68/60 82/63/60 91/63/60 90/68/60
f 82/8/3 79/9/3 87/9/3 91/8/3
f 84/64/57 83/35/57 93/35/57 95/64/57
f 83/35/16 86/37/16 98/37/16 93/35/16
f 80/32/15 84/34/15 95/34/15 88/32/15
f 79/61/58 80/32/58 88/32/58 87/61/58
f 86/37/59 85/31/59 96/31/59 98/37/59
f 89/32/15 94/71/15 101/71/15 99/32/15
f 87/61/75 88/32/75 89/32/75
f 90/68/76 91/63/76 92/68/76
f 93/35/77 94/35/77 95/64/77
f 96/31/78 97/72/78 98/37/78
f 92/68/79 97/73/79 96/65/79 90/68/79
f 89/74/80 92/75/80 91/8/80 87/9/80
f 97/72/81 94/35/81 93/35/81 98/37/81
f 94/71/82 89/32/82 88/32/82 95/34/82
f 99/74/14 101/76/14 102/77/14 100/75/14
f 94/35/16 97/72/16 102/72/16 101/35/16
f 92/75/3 89/74/3 99/74/3 100/75/3
f 97/73/70 92/68/70 100/68/70 102/73/70
f 104/16/53 103/15/53 48/62/53 54/65/53
f 104/78/6 11/78/6 5/78/6 103/78/6
