# Blender 4.0.2
# www.blender.org
mtllib pylvaes.mtl
o Cylinder
v 0.000000 -4.536415 -0.664487
v 0.000000 4.536415 -0.664487
v 0.122215 -4.536415 -0.614416
v 0.122215 4.536415 -0.614416
v 0.254288 -4.536415 -0.613906
v 0.254288 4.536415 -0.613906
v 0.348039 -4.536415 -0.520877
v 0.348039 4.536415 -0.520877
v 0.469863 -4.536415 -0.469863
v 0.469863 4.536415 -0.469863
v 0.520877 -4.536415 -0.348039
v 0.520877 4.536415 -0.348039
v 0.613906 -4.536415 -0.254288
v 0.613906 4.536415 -0.254288
v 0.614416 -4.536415 -0.122215
v 0.614416 4.536415 -0.122215
v 0.664487 -4.536415 0.000000
v 0.664487 4.536415 0.000000
v 0.614416 -4.536415 0.122215
v 0.614416 4.536415 0.122215
v 0.613906 -4.536415 0.254288
v 0.613906 4.536415 0.254288
v 0.520877 -4.536415 0.348039
v 0.520877 4.536415 0.348039
v 0.469863 -4.536415 0.469863
v 0.469863 4.536415 0.469863
v 0.348039 -4.536415 0.520877
v 0.348039 4.536415 0.520877
v 0.254288 -4.536415 0.613906
v 0.254288 4.536415 0.613906
v 0.122215 -4.536415 0.614416
v 0.122215 4.536415 0.614416
v 0.000000 -4.536415 0.664487
v 0.000000 4.536415 0.664487
v -0.122215 -4.536415 0.614416
v -0.122215 4.536415 0.614416
v -0.254288 -4.536415 0.613906
v -0.254288 4.536415 0.613906
v -0.348039 -4.536415 0.520877
v -0.348039 4.536415 0.520877
v -0.469863 -4.536415 0.469863
v -0.469863 4.536415 0.469863
v -0.520877 -4.536415 0.348039
v -0.520877 4.536415 0.348039
v -0.613906 -4.536415 0.254288
v -0.613906 4.536415 0.254288
v -0.614416 -4.536415 0.122215
v -0.614416 4.536415 0.122215
v -0.664487 -4.536415 0.000000
v -0.664487 4.536415 0.000000
v -0.614416 -4.536415 -0.122215
v -0.614416 4.536415 -0.122215
v -0.613906 -4.536415 -0.254288
v -0.613906 4.536415 -0.254288
v -0.520877 -4.536415 -0.348039
v -0.520877 4.536415 -0.348039
v -0.469863 -4.536415 -0.469863
v -0.469863 4.536415 -0.469863
v -0.348039 -4.536415 -0.520877
v -0.348039 4.536415 -0.520877
v -0.254288 -4.536415 -0.613906
v -0.254288 4.536415 -0.613906
v -0.122215 -4.536415 -0.614416
v -0.122215 4.536415 -0.614416
v -0.000000 4.688511 -0.966652
v -0.000000 4.888564 -0.966652
v 0.188584 4.688511 -0.948078
v 0.369922 4.688511 -0.893070
v 0.369922 4.888564 -0.893070
v 0.537043 4.688511 -0.803742
v 0.683526 4.688511 -0.683526
v 0.683526 4.888564 -0.683526
v 0.803742 4.688511 -0.537043
v 0.893070 4.688511 -0.369922
v 0.893070 4.888564 -0.369922
v 0.948078 4.688511 -0.188585
v 0.966652 4.688511 0.000000
v 0.966652 4.888564 0.000000
v 0.948078 4.688511 0.188585
v 0.893070 4.688511 0.369922
v 0.893070 4.888564 0.369922
v 0.803742 4.688511 0.537043
v 0.683526 4.688511 0.683526
v 0.683526 4.888564 0.683526
v 0.537043 4.688511 0.803742
v 0.369922 4.688511 0.893070
v 0.369922 4.888564 0.893070
v 0.188584 4.688511 0.948078
v -0.000000 4.688511 0.966652
v -0.000000 4.888564 0.966652
v -0.188585 4.688511 0.948078
v -0.369922 4.688511 0.893070
v -0.369922 4.888564 0.893070
v -0.537043 4.688511 0.803742
v -0.683526 4.688511 0.683526
v -0.683526 4.888564 0.683526
v -0.803742 4.688511 0.537043
v -0.893070 4.688511 0.369922
v -0.893070 4.888564 0.369922
v -0.948078 4.688511 0.188585
v -0.966652 4.688511 0.000000
v -0.966652 4.888564 0.000000
v -0.948078 4.688511 -0.188585
v -0.893070 4.688511 -0.369922
v -0.893070 4.888564 -0.369922
v -0.803742 4.688511 -0.537043
v -0.683526 4.688511 -0.683526
v -0.683526 4.888564 -0.683526
v -0.537043 4.688511 -0.803742
v -0.369922 4.688511 -0.893070
v -0.369922 4.888564 -0.893070
v -0.188585 4.688511 -0.948078
v 0.000000 -4.899970 -1.000000
v 0.000000 -4.708266 -1.000000
v 0.195090 -4.708266 -0.980785
v 0.382683 -4.899970 -0.923880
v 0.382683 -4.708266 -0.923880
v 0.555570 -4.708266 -0.831470
v 0.707107 -4.899970 -0.707107
v 0.707107 -4.708266 -0.707107
v 0.831470 -4.708266 -0.555570
v 0.923880 -4.899970 -0.382683
v 0.923880 -4.708266 -0.382683
v 0.980785 -4.708266 -0.195090
v 1.000000 -4.899970 0.000000
v 1.000000 -4.708266 0.000000
v 0.980785 -4.708266 0.195090
v 0.923880 -4.899970 0.382683
v 0.923880 -4.708266 0.382683
v 0.831470 -4.708266 0.555570
v 0.707107 -4.899970 0.707107
v 0.707107 -4.708266 0.707107
v 0.555570 -4.708266 0.831470
v 0.382683 -4.899970 0.923880
v 0.382683 -4.708266 0.923880
v 0.195090 -4.708266 0.980785
v 0.000000 -4.899970 1.000000
v 0.000000 -4.708266 1.000000
v -0.195090 -4.708266 0.980785
v -0.382683 -4.899970 0.923880
v -0.382683 -4.708266 0.923880
v -0.555570 -4.708266 0.831470
v -0.707107 -4.899970 0.707107
v -0.707107 -4.708266 0.707107
v -0.831470 -4.708266 0.555570
v -0.923880 -4.899970 0.382683
v -0.923880 -4.708266 0.382683
v -0.980785 -4.708266 0.195090
v -1.000000 -4.899970 0.000000
v -1.000000 -4.708266 0.000000
v -0.980785 -4.708266 -0.195090
v -0.923880 -4.899970 -0.382683
v -0.923880 -4.708266 -0.382683
v -0.831470 -4.708266 -0.555570
v -0.707107 -4.899970 -0.707107
v -0.707107 -4.708266 -0.707107
v -0.555570 -4.708266 -0.831470
v -0.382683 -4.899970 -0.923880
v -0.382683 -4.708266 -0.923880
v -0.195090 -4.708266 -0.980785
v -1.011751 4.867610 1.011126
v -1.011751 5.159085 1.011126
v -1.011751 4.867610 -1.006794
v -1.011751 5.159085 -1.006794
v 1.006169 4.867610 1.011126
v 1.006169 5.159085 1.011126
v 1.006169 4.867610 -1.006794
v 1.006169 5.159085 -1.006794
vn 0.3791 -0.0000 -0.9254
vn 0.0039 -0.0000 -1.0000
vn 0.7044 -0.0000 -0.7098
vn 0.3863 -0.0000 -0.9224
vn 0.9224 -0.0000 -0.3863
vn 0.7098 -0.0000 -0.7044
vn 1.0000 -0.0000 -0.0039
vn 0.9254 -0.0000 -0.3791
vn 0.9254 -0.0000 0.3791
vn 1.0000 -0.0000 0.0039
vn 0.7098 -0.0000 0.7044
vn 0.9224 -0.0000 0.3863
vn 0.3863 -0.0000 0.9224
vn 0.7044 -0.0000 0.7098
vn 0.0039 -0.0000 1.0000
vn 0.3791 -0.0000 0.9254
vn -0.3791 -0.0000 0.9254
vn -0.0039 -0.0000 1.0000
vn -0.7044 -0.0000 0.7098
vn -0.3863 -0.0000 0.9224
vn -0.9224 -0.0000 0.3863
vn -0.7098 -0.0000 0.7044
vn -1.0000 -0.0000 0.0039
vn -0.9254 -0.0000 0.3791
vn -0.9254 -0.0000 -0.3791
vn -1.0000 -0.0000 -0.0039
vn -0.7098 -0.0000 -0.7044
vn -0.9224 -0.0000 -0.3863
vn -0.3863 -0.0000 -0.9224
vn -0.7044 -0.0000 -0.7098
vn -0.0039 -0.0000 -1.0000
vn -0.3791 -0.0000 -0.9254
vn -0.0000 -1.0000 -0.0000
vn 0.5550 0.0464 -0.8306
vn 0.8306 0.0464 -0.5550
vn 0.9797 0.0464 -0.1949
vn 0.9797 0.0464 0.1949
vn 0.8306 0.0464 0.5550
vn 0.5550 0.0464 0.8306
vn 0.1949 0.0464 0.9797
vn -0.1949 0.0464 0.9797
vn -0.5550 0.0464 0.8306
vn -0.8306 0.0464 0.5550
vn -0.9797 0.0464 0.1949
vn -0.9797 0.0464 -0.1949
vn -0.8306 0.0464 -0.5550
vn -0.5550 0.0464 -0.8306
vn -0.1949 0.0464 -0.9797
vn -0.0000 1.0000 -0.0000
vn 0.2475 -0.9019 -0.3540
vn 0.3641 -0.9019 0.2324
vn -0.3641 -0.9019 0.2324
vn -0.2475 -0.9019 -0.3540
vn 0.4218 -0.9019 -0.0932
vn -0.0932 -0.9019 0.4218
vn -0.4253 -0.9019 -0.0753
vn 0.2324 -0.9019 -0.3641
vn 0.2324 -0.9019 0.3641
vn -0.3540 -0.9019 0.2475
vn -0.0753 -0.9019 -0.4253
vn 0.4218 -0.9019 0.0932
vn -0.0753 -0.9019 0.4253
vn -0.3540 -0.9019 -0.2475
vn 0.3641 -0.9019 -0.2324
vn 0.2475 -0.9019 0.3540
vn -0.4253 -0.9019 0.0753
vn 0.0932 -0.9019 -0.4218
vn -0.0932 -0.9019 -0.4218
vn 0.4253 -0.9019 0.0753
vn -0.2475 -0.9019 0.3540
vn -0.3641 -0.9019 -0.2324
vn 0.3540 -0.9019 -0.2475
vn 0.0753 -0.9019 0.4253
vn -0.4218 -0.9019 0.0932
vn 0.0753 -0.9019 -0.4253
vn 0.3540 -0.9019 0.2475
vn -0.2324 -0.9019 0.3641
vn -0.2324 -0.9019 -0.3641
vn 0.4253 -0.9019 -0.0753
vn 0.0932 -0.9019 0.4218
vn -0.4218 -0.9019 -0.0932
vn 0.2376 0.8980 0.3704
vn 0.5549 -0.0501 -0.8304
vn -0.3704 0.8980 0.2376
vn -0.2376 0.8980 -0.3704
vn 0.8304 -0.0501 -0.5549
vn -0.0939 0.8980 -0.4300
vn 0.0778 0.8980 -0.4332
vn 0.9796 -0.0501 -0.1948
vn 0.4332 0.8980 0.0778
vn -0.0778 0.8980 0.4332
vn 0.9796 -0.0501 0.1948
vn -0.4332 0.8980 -0.0778
vn 0.4332 0.8980 -0.0778
vn 0.8304 -0.0501 0.5549
vn 0.0778 0.8980 0.4332
vn -0.4332 0.8980 0.0778
vn 0.5549 -0.0501 0.8304
vn -0.0778 0.8980 -0.4332
vn 0.2376 0.8980 -0.3704
vn 0.1948 -0.0501 0.9796
vn 0.3704 0.8980 0.2376
vn -0.2376 0.8980 0.3704
vn -0.1948 -0.0501 0.9796
vn -0.3704 0.8980 -0.2376
vn 0.4300 0.8980 0.0939
vn -0.5549 -0.0501 0.8304
vn -0.0939 0.8980 0.4300
vn -0.4300 0.8980 -0.0939
vn -0.8304 -0.0501 0.5549
vn 0.0939 0.8980 -0.4300
vn 0.3613 0.8980 -0.2513
vn -0.9796 -0.0501 0.1948
vn 0.2513 0.8980 0.3613
vn -0.3613 0.8980 0.2513
vn -0.9796 -0.0501 -0.1948
vn -0.2513 0.8980 -0.3613
vn 0.2513 0.8980 -0.3613
vn -0.8304 -0.0501 -0.5549
vn 0.3613 0.8980 0.2513
vn -0.2513 0.8980 0.3613
vn -0.5549 -0.0501 -0.8304
vn -0.3613 0.8980 -0.2513
vn 0.4300 0.8980 -0.0939
vn -0.1948 -0.0501 -0.9796
vn 0.0939 0.8980 0.4300
vn -0.4300 0.8980 0.0939
vn 0.3704 0.8980 -0.2376
vn 0.1949 0.0464 -0.9797
vn 0.1948 -0.0501 -0.9796
vn -1.0000 -0.0000 -0.0000
vn -0.0000 -0.0000 -1.0000
vn 1.0000 -0.0000 -0.0000
vn -0.0000 -0.0000 1.0000
vt 1.000000 0.500000
vt 1.000000 1.000000
vt 0.968750 1.000000
vt 0.968750 0.500000
vt 0.937500 1.000000
vt 0.937500 0.500000
vt 0.906250 1.000000
vt 0.906250 0.500000
vt 0.875000 1.000000
vt 0.875000 0.500000
vt 0.843750 1.000000
vt 0.843750 0.500000
vt 0.812500 1.000000
vt 0.812500 0.500000
vt 0.781250 1.000000
vt 0.781250 0.500000
vt 0.750000 1.000000
vt 0.750000 0.500000
vt 0.718750 1.000000
vt 0.718750 0.500000
vt 0.687500 1.000000
vt 0.687500 0.500000
vt 0.656250 1.000000
vt 0.656250 0.500000
vt 0.625000 1.000000
vt 0.625000 0.500000
vt 0.593750 1.000000
vt 0.593750 0.500000
vt 0.562500 1.000000
vt 0.562500 0.500000
vt 0.531250 1.000000
vt 0.531250 0.500000
vt 0.500000 1.000000
vt 0.500000 0.500000
vt 0.468750 1.000000
vt 0.468750 0.500000
vt 0.437500 1.000000
vt 0.437500 0.500000
vt 0.406250 1.000000
vt 0.406250 0.500000
vt 0.375000 1.000000
vt 0.375000 0.500000
vt 0.343750 1.000000
vt 0.343750 0.500000
vt 0.312500 1.000000
vt 0.312500 0.500000
vt 0.281250 1.000000
vt 0.281250 0.500000
vt 0.250000 1.000000
vt 0.250000 0.500000
vt 0.218750 1.000000
vt 0.218750 0.500000
vt 0.187500 1.000000
vt 0.187500 0.500000
vt 0.156250 1.000000
vt 0.156250 0.500000
vt 0.125000 1.000000
vt 0.125000 0.500000
vt 0.093750 1.000000
vt 0.093750 0.500000
vt 0.062500 1.000000
vt 0.062500 0.500000
vt 0.031250 1.000000
vt 0.031250 0.500000
vt 0.000000 1.000000
vt 0.000000 0.500000
vt 0.750000 0.490000
vt 0.796822 0.485388
vt 0.841844 0.471731
vt 0.883337 0.449553
vt 0.919706 0.419706
vt 0.949553 0.383337
vt 0.971731 0.341844
vt 0.985388 0.296822
vt 0.990000 0.250000
vt 0.985388 0.203178
vt 0.971731 0.158156
vt 0.949553 0.116663
vt 0.919706 0.080294
vt 0.883337 0.050447
vt 0.841844 0.028269
vt 0.796822 0.014612
vt 0.750000 0.010000
vt 0.703178 0.014612
vt 0.658156 0.028269
vt 0.616663 0.050447
vt 0.580294 0.080294
vt 0.550447 0.116663
vt 0.528269 0.158156
vt 0.514612 0.203178
vt 0.510000 0.250000
vt 0.514612 0.296822
vt 0.528269 0.341844
vt 0.550447 0.383337
vt 0.580294 0.419706
vt 0.616663 0.449553
vt 0.658156 0.471731
vt 0.703178 0.485388
vt 0.250000 0.490000
vt 0.158156 0.471731
vt 0.080294 0.419706
vt 0.028269 0.341844
vt 0.010000 0.250000
vt 0.028269 0.158156
vt 0.080294 0.080294
vt 0.158156 0.028269
vt 0.250000 0.010000
vt 0.341844 0.028269
vt 0.419706 0.080294
vt 0.471731 0.158156
vt 0.490000 0.250000
vt 0.471731 0.341844
vt 0.419706 0.419706
vt 0.341844 0.471731
vt 0.375000 0.000000
vt 0.625000 0.000000
vt 0.625000 0.250000
vt 0.375000 0.250000
vt 0.625000 0.750000
vt 0.375000 0.750000
vt 0.125000 0.750000
vt 0.875000 0.750000
s 0
f 1/1/1 2/2/1 4/3/1 3/4/1
f 3/4/2 4/3/2 6/5/2 5/6/2
f 5/6/3 6/5/3 8/7/3 7/8/3
f 7/8/4 8/7/4 10/9/4 9/10/4
f 9/10/5 10/9/5 12/11/5 11/12/5
f 11/12/6 12/11/6 14/13/6 13/14/6
f 13/14/7 14/13/7 16/15/7 15/16/7
f 15/16/8 16/15/8 18/17/8 17/18/8
f 17/18/9 18/17/9 20/19/9 19/20/9
f 19/20/10 20/19/10 22/21/10 21/22/10
f 21/22/11 22/21/11 24/23/11 23/24/11
f 23/24/12 24/23/12 26/25/12 25/26/12
f 25/26/13 26/25/13 28/27/13 27/28/13
f 27/28/14 28/27/14 30/29/14 29/30/14
f 29/30/15 30/29/15 32/31/15 31/32/15
f 31/32/16 32/31/16 34/33/16 33/34/16
f 33/34/17 34/33/17 36/35/17 35/36/17
f 35/36/18 36/35/18 38/37/18 37/38/18
f 37/38/19 38/37/19 40/39/19 39/40/19
f 39/40/20 40/39/20 42/41/20 41/42/20
f 41/42/21 42/41/21 44/43/21 43/44/21
f 43/44/22 44/43/22 46/45/22 45/46/22
f 45/46/23 46/45/23 48/47/23 47/48/23
f 47/48/24 48/47/24 50/49/24 49/50/24
f 49/50/25 50/49/25 52/51/25 51/52/25
f 51/52/26 52/51/26 54/53/26 53/54/26
f 53/54/27 54/53/27 56/55/27 55/56/27
f 55/56/28 56/55/28 58/57/28 57/58/28
f 57/58/29 58/57/29 60/59/29 59/60/29
f 59/60/30 60/59/30 62/61/30 61/62/30
f 61/62/31 62/61/31 64/63/31 63/64/31
f 63/64/32 64/63/32 2/65/32 1/66/32
f 1/67/33 3/68/33 5/69/33 7/70/33 9/71/33 11/72/33 13/73/33 15/74/33 17/75/33 19/76/33 21/77/33 23/78/33 25/79/33 27/80/33 29/81/33 31/82/33 33/83/33 35/84/33 37/85/33 39/86/33 41/87/33 43/88/33 45/89/33 47/90/33 49/91/33 51/92/33 53/93/33 55/94/33 57/95/33 59/96/33 61/97/33 63/98/33
f 69/5/34 72/9/34 71/10/34 70/8/34 68/6/34
f 72/9/35 75/13/35 74/14/35 73/12/35 71/10/35
f 75/13/36 78/17/36 77/18/36 76/16/36 74/14/36
f 78/17/37 81/21/37 80/22/37 79/20/37 77/18/37
f 81/21/38 84/25/38 83/26/38 82/24/38 80/22/38
f 84/25/39 87/29/39 86/30/39 85/28/39 83/26/39
f 87/29/40 90/33/40 89/34/40 88/32/40 86/30/40
f 90/33/41 93/37/41 92/38/41 91/36/41 89/34/41
f 93/37/42 96/41/42 95/42/42 94/40/42 92/38/42
f 96/41/43 99/45/43 98/46/43 97/44/43 95/42/43
f 99/45/44 102/49/44 101/50/44 100/48/44 98/46/44
f 102/49/45 105/53/45 104/54/45 103/52/45 101/50/45
f 105/53/46 108/57/46 107/58/46 106/56/46 104/54/46
f 108/57/47 111/61/47 110/62/47 109/60/47 107/58/47
f 111/61/48 66/65/48 65/66/48 112/64/48 110/62/48
f 66/99/49 111/100/49 108/101/49 105/102/49 102/103/49 99/104/49 96/105/49 93/106/49 90/107/49 87/108/49 84/109/49 81/110/49 78/111/49 75/112/49 72/113/49 69/114/49
f 68/6/50 70/8/50 8/8/50 6/6/50
f 82/24/51 83/26/51 26/26/51 24/24/51
f 95/42/52 97/44/52 44/44/52 42/42/52
f 109/60/53 110/62/53 62/62/53 60/60/53
f 76/16/54 77/18/54 18/18/54 16/16/54
f 89/34/55 91/36/55 36/36/55 34/34/55
f 103/52/56 104/54/56 54/54/56 52/52/56
f 70/8/57 71/10/57 10/10/57 8/8/57
f 83/26/58 85/28/58 28/28/58 26/26/58
f 97/44/59 98/46/59 46/46/59 44/44/59
f 110/62/60 112/64/60 64/64/60 62/62/60
f 77/18/61 79/20/61 20/20/61 18/18/61
f 91/36/62 92/38/62 38/38/62 36/36/62
f 104/54/63 106/56/63 56/56/63 54/54/63
f 71/10/64 73/12/64 12/12/64 10/10/64
f 85/28/65 86/30/65 30/30/65 28/28/65
f 98/46/66 100/48/66 48/48/66 46/46/66
f 65/1/67 67/4/67 4/4/67 2/1/67
f 112/64/68 65/66/68 2/66/68 64/64/68
f 79/20/69 80/22/69 22/22/69 20/20/69
f 92/38/70 94/40/70 40/40/70 38/38/70
f 106/56/71 107/58/71 58/58/71 56/56/71
f 73/12/72 74/14/72 14/14/72 12/12/72
f 86/30/73 88/32/73 32/32/73 30/30/73
f 100/48/74 101/50/74 50/50/74 48/48/74
f 67/4/75 68/6/75 6/6/75 4/4/75
f 80/22/76 82/24/76 24/24/76 22/22/76
f 94/40/77 95/42/77 42/42/77 40/40/77
f 107/58/78 109/60/78 60/60/78 58/58/78
f 74/14/79 76/16/79 16/16/79 14/14/79
f 88/32/80 89/34/80 34/34/80 32/32/80
f 101/50/81 103/52/81 52/52/81 50/50/81
f 20/19/49 18/17/49 16/15/49 14/13/49 12/11/49 10/9/49 8/7/49 6/5/49 4/3/49 2/65/49 64/63/49 62/61/49 60/59/49 58/57/49 56/55/49 54/53/49 52/51/49 50/49/49 48/47/49 46/45/49 44/43/49 42/41/49 40/39/49 38/37/49 36/35/49 34/33/49 32/31/49 30/29/49 28/27/49 26/25/49 24/23/49 22/21/49
f 133/27/82 132/25/82 25/25/82 27/27/82
f 118/7/83 120/9/83 119/10/83 116/6/83 117/5/83
f 145/43/84 144/41/84 41/41/84 43/43/84
f 157/59/85 156/57/85 57/57/85 59/59/85
f 121/11/86 123/13/86 122/14/86 119/10/86 120/9/86
f 114/65/87 160/63/87 63/63/87 1/65/87
f 117/5/88 115/3/88 3/3/88 5/5/88
f 124/15/89 126/17/89 125/18/89 122/14/89 123/13/89
f 129/21/90 127/19/90 19/19/90 21/21/90
f 141/37/91 139/35/91 35/35/91 37/37/91
f 127/19/92 129/21/92 128/22/92 125/18/92 126/17/92
f 153/53/93 151/51/93 51/51/93 53/53/93
f 124/15/94 123/13/94 13/13/94 15/15/94
f 130/23/95 132/25/95 131/26/95 128/22/95 129/21/95
f 136/31/96 135/29/96 29/29/96 31/31/96
f 148/47/97 147/45/97 45/45/97 47/47/97
f 133/27/98 135/29/98 134/30/98 131/26/98 132/25/98
f 160/63/99 159/61/99 61/61/99 63/63/99
f 120/9/100 118/7/100 7/7/100 9/9/100
f 136/31/101 138/33/101 137/34/101 134/30/101 135/29/101
f 132/25/102 130/23/102 23/23/102 25/25/102
f 144/41/103 142/39/103 39/39/103 41/41/103
f 139/35/104 141/37/104 140/38/104 137/34/104 138/33/104
f 156/57/105 154/55/105 55/55/105 57/57/105
f 127/19/106 126/17/106 17/17/106 19/19/106
f 142/39/107 144/41/107 143/42/107 140/38/107 141/37/107
f 139/35/108 138/33/108 33/33/108 35/35/108
f 151/51/109 150/49/109 49/49/109 51/51/109
f 145/43/110 147/45/110 146/46/110 143/42/110 144/41/110
f 115/3/111 114/2/111 1/2/111 3/3/111
f 123/13/112 121/11/112 11/11/112 13/13/112
f 148/47/113 150/49/113 149/50/113 146/46/113 147/45/113
f 135/29/114 133/27/114 27/27/114 29/29/114
f 147/45/115 145/43/115 43/43/115 45/45/115
f 151/51/116 153/53/116 152/54/116 149/50/116 150/49/116
f 159/61/117 157/59/117 59/59/117 61/61/117
f 118/7/118 117/5/118 5/5/118 7/7/118
f 154/55/119 156/57/119 155/58/119 152/54/119 153/53/119
f 130/23/120 129/21/120 21/21/120 23/23/120
f 142/39/121 141/37/121 37/37/121 39/39/121
f 157/59/122 159/61/122 158/62/122 155/58/122 156/57/122
f 154/55/123 153/53/123 53/53/123 55/55/123
f 126/17/124 124/15/124 15/15/124 17/17/124
f 160/63/125 114/65/125 113/66/125 158/62/125 159/61/125
f 138/33/126 136/31/126 31/31/126 33/33/126
f 150/49/127 148/47/127 47/47/127 49/49/127
f 121/11/128 120/9/128 9/9/128 11/11/128
f 113/67/33 116/69/33 119/71/33 122/73/33 125/75/33 128/77/33 131/79/33 134/81/33 137/83/33 140/85/33 143/87/33 146/89/33 149/91/33 152/93/33 155/95/33 158/97/33
f 66/2/129 69/5/129 68/6/129 67/4/129 65/1/129
f 115/3/130 117/5/130 116/6/130 113/1/130 114/2/130
f 161/115/131 162/116/131 164/117/131 163/118/131
f 163/118/132 164/117/132 168/26/132 167/42/132
f 167/42/133 168/26/133 166/119/133 165/120/133
f 165/120/134 166/119/134 162/25/134 161/41/134
f 163/58/33 167/42/33 165/120/33 161/121/33
f 168/26/49 164/10/49 162/122/49 166/119/49
